<svg xmlns="http://www.w3.org/2000/svg" fill="none" viewBox="0 0 76 105">
  <path d="M.65 105v-5.4c0-4.5.8-8.6 2.4-12.3 1.6-3.7 3.8-7.1 6.6-10.2 2.8-3.1 5.9-6.05 9.3-8.85 3.4-2.8 6.9-5.5 10.5-8.1C33.55 57.05 37.4 54 41 51c3.7-3 6.7-6.2 9-9.6 2.3-3.5 3.45-7.35 3.45-11.55 0-2-.5-4-1.5-6s-2.6-3.65-4.8-4.95c-2.1-1.4-4.95-2.1-8.55-2.1-3.7 0-6.75.65-9.15 1.95-2.4 1.2-4.25 2.95-5.55 5.25-1.2 2.2-1.8 4.95-1.8 8.25v5.4H2c-.1-.5-.2-1.2-.3-2.1-.1-.9-.15-2-.15-3.3 0-7.3 1.65-13.3 4.95-18 3.4-4.7 7.95-8.2 13.65-10.5C25.95 1.45 32.5.3 39.8.3c6.6 0 12.1.95 16.5 2.85 4.5 1.8 8.1 4.25 10.8 7.35 2.7 3 4.6 6.3 5.7 9.9 1.2 3.5 1.8 6.9 1.8 10.2 0 4.7-.85 9-2.55 12.9-1.7 3.9-4 7.55-6.9 10.95-2.9 3.4-6.35 6.7-10.35 9.9-4 3.1-8.25 6.2-12.75 9.3-2.3 1.6-4.5 3.15-6.6 4.65-2 1.5-3.75 2.95-5.25 4.35-1.4 1.3-2.5 2.6-3.3 3.9h48.45V105H.65z" fill="#56B9FF"/>
</svg>
