<svg xmlns="http://www.w3.org/2000/svg" fill="none" viewBox="0 0 77 107">
  <path d="M39 106.8c-8.4 0-15.45-1.3-21.15-3.9-5.7-2.6-10-6.2-12.9-10.8C2.05 87.5.6 82.2.6 76.2v-2.55h20.25v2.85c0 4.4 1.45 7.85 4.35 10.35 3 2.5 7.3 3.75 12.9 3.75 5.4 0 9.6-1.25 12.6-3.75s4.5-6.35 4.5-11.55c0-3.9-.8-6.9-2.4-9-1.6-2.1-3.7-3.6-6.3-4.5-2.5-.9-5.25-1.35-8.25-1.35H29.1V44.7h9c2.8 0 5.3-.5 7.5-1.5 2.3-1.1 4.1-2.7 5.4-4.8 1.4-2.1 2.1-4.8 2.1-8.1 0-3.1-.65-5.65-1.95-7.65-1.2-2.1-2.95-3.65-5.25-4.65-2.2-1-4.75-1.5-7.65-1.5-2.9 0-5.55.5-7.95 1.5-2.3 1-4.1 2.5-5.4 4.5-1.3 2-1.95 4.5-1.95 7.5v2.25H3V28.5C3 22.9 4.45 18 7.35 13.8c3-4.3 7.2-7.6 12.6-9.9C25.35 1.5 31.6.3 38.7.3S52 1.4 57.3 3.6c5.4 2.2 9.55 5.45 12.45 9.75 3 4.2 4.5 9.2 4.5 15 0 3.9-.75 7.35-2.25 10.35-1.4 3-3.3 5.55-5.7 7.65-2.4 2-5.15 3.7-8.25 5.1v.6c5.4 1.6 9.8 4.55 13.2 8.85 3.5 4.2 5.25 9.65 5.25 16.35-.1 6-1.7 11.2-4.8 15.6-3 4.4-7.3 7.85-12.9 10.35-5.6 2.4-12.2 3.6-19.8 3.6z" fill="#56B9FF"/>
</svg>
