<svg xmlns="http://www.w3.org/2000/svg" fill="none" viewBox="0 0 81 105">
  <path d="M46.7 105V82.5H.35V65.85C4.25 59.65 7.9 53.1 11.3 46.2c3.4-6.9 6.55-14.2 9.45-21.9 3-7.7 5.5-15.7 7.5-24H49.7c-1.1 4.8-2.65 9.85-4.65 15.15a164.3 164.3 0 01-6.6 15.75c-2.5 5.2-5.05 10.1-7.65 14.7-2.5 4.5-4.9 8.5-7.2 12s-4.25 6.15-5.85 7.95H46.7v-24.9c1-1.9 2-3.95 3-6.15 1.1-2.3 2.15-4.6 3.15-6.9 1-2.4 1.9-4.75 2.7-7.05.9-2.3 1.6-4.45 2.1-6.45h9.6v51.45h13.2V82.5h-13.2V105H46.7z" fill="#56B9FF" fill-opacity=".85"/>
</svg>
