<svg xmlns="http://www.w3.org/2000/svg" fill="none" viewBox="0 0 52 71">
  <path d="M10.435 26.184a.485.485 0 00.487.483h39.607a.486.486 0 00.487-.483V10.919a.485.485 0 00-.487-.484H21.357a.485.485 0 00-.487.484v4.83a.485.485 0 00.487.483H42.9a2.319 2.319 0 110 4.638H18.55a2.319 2.319 0 01-2.319-2.319V8.116a2.32 2.32 0 012.32-2.319h31.977a.486.486 0 00.487-.484V.483A.487.487 0 0050.53 0H10.922a.486.486 0 00-.487.484v25.7zm40.093 21.505a.486.486 0 00.488-.484V42.37a.486.486 0 00-.488-.483H.488A.486.486 0 000 42.37v4.83a.486.486 0 00.488.488h50.04z" fill="#fff"/>
  <path d="M50.528 37.24a.484.484 0 00.488-.482v-4.83a.486.486 0 00-.488-.485H8.116a2.319 2.319 0 01-2.319-2.318V.625a.486.486 0 00-.484-.487H.483A.486.486 0 000 .626v36.132c0 .123.047.24.132.33l.011.011a.477.477 0 00.339.14h50.046v.002zM0 70.386a.486.486 0 00.484.491h4.83a.486.486 0 00.483-.487 1.831 1.831 0 011.831-1.832h42.9a.486.486 0 00.488-.483V63.24a.486.486 0 00-.488-.484H8.116a2.319 2.319 0 110-4.637h42.412a.487.487 0 00.488-.484v-4.83a.486.486 0 00-.488-.484H.488a.486.486 0 00-.488.484v17.58z" fill="#fff"/>
</svg>
