<svg fill="none" xmlns="http://www.w3.org/2000/svg" viewBox="0 0 176 80">
  <path fill-rule="evenodd" clip-rule="evenodd" d="M40 70.459c16.822 0 30.459-13.637 30.459-30.459S56.822 9.541 40 9.541 9.541 23.178 9.541 40 23.178 70.459 40 70.459zM40 80c22.091 0 40-17.909 40-40S62.091 0 40 0 0 17.909 0 40s17.909 40 40 40z" fill="#000"/>
  <path d="M175.411.005a40.731 40.731 0 00-.367-.002c-21.972 0-39.801 17.711-39.998 39.633h9.524c.197-16.661 13.762-30.11 30.474-30.11.123 0 .245.001.367.003V.005zm0 40.361a40.877 40.877 0 00-.368-.002c-21.972 0-39.801 17.712-39.998 39.633h9.524c.197-16.66 13.763-30.109 30.474-30.109.123 0 .246 0 .368.002v-9.524zM100.551 0h9.541v80h-9.541V0z" fill="#000"/>
</svg>
